<svg width="501" height="64" viewBox="0 0 501 64" fill="none" xmlns="http://www.w3.org/2000/svg">
<path d="M0.236328 12.0253H21.6137C28.5004 12.0253 34.3807 14.4607 39.2515 19.3285C44.1192 24.1993 46.5546 30.0795 46.5546 36.9661C46.5546 43.8557 44.1192 49.7328 39.2515 54.6036C34.3807 59.4713 28.5004 61.9069 21.6137 61.9069H0.236328V12.0253ZM12.7052 22.7155V51.2196H21.6137C25.0586 51.2196 27.9957 49.8303 30.4311 47.0513C32.8665 44.2693 34.0827 40.9095 34.0827 36.9661C34.0827 33.0226 32.8665 29.6629 30.4311 26.8839C27.9957 24.105 25.0586 22.7155 21.6137 22.7155H12.7052Z" fill="#BC002D"/>
<path d="M79.8006 51.2196C83.7411 51.2196 87.1037 49.8302 89.8827 47.0512C92.6617 44.2692 94.0511 40.9095 94.0511 36.966C94.0511 33.0226 92.6617 29.6629 89.8827 26.8839C87.1037 24.1049 83.7411 22.7154 79.8006 22.7154C75.8572 22.7154 72.4944 24.1049 69.7154 26.8839C66.9364 29.6629 65.5469 33.0226 65.5469 36.966C65.5469 40.9095 66.9364 44.2692 69.7154 47.0512C72.4944 49.8302 75.8572 51.2196 79.8006 51.2196ZM79.8006 63.6885C72.4123 63.6885 66.1124 61.0828 60.898 55.8684C55.6837 50.6541 53.0781 44.3543 53.0781 36.966C53.0781 29.5777 55.6837 23.2779 60.898 18.0635C66.1124 12.8522 72.4123 10.2435 79.8006 10.2435C87.1859 10.2435 93.4888 12.8522 98.7001 18.0635C103.914 23.2779 106.523 29.5777 106.523 36.966C106.523 44.3543 103.914 50.6541 98.7001 55.8684C93.4888 61.0828 87.1859 63.6885 79.8006 63.6885Z" fill="#BC002D"/>
<path d="M147.495 42.3112V12.0253H159.967V42.3112C159.967 48.2248 157.881 53.2658 153.713 57.4373C149.544 61.6058 144.503 63.6886 138.59 63.6886C132.673 63.6886 127.632 61.6058 123.463 57.4373C119.295 53.2658 117.209 48.2248 117.209 42.3112H129.681C129.681 44.78 130.548 46.8839 132.281 48.617C134.017 50.35 136.118 51.2197 138.59 51.2197C141.058 51.2197 143.159 50.35 144.895 48.617C146.628 46.8839 147.495 44.78 147.495 42.3112Z" fill="#BC002D"/>
<path d="M197.377 51.2196C201.32 51.2196 204.683 49.8302 207.462 47.0512C210.241 44.2692 211.63 40.9095 211.63 36.966C211.63 33.0226 210.241 29.6629 207.462 26.8839C204.683 24.1049 201.32 22.7154 197.377 22.7154C193.436 22.7154 190.074 24.1049 187.295 26.8839C184.516 29.6629 183.126 33.0226 183.126 36.966C183.126 40.9095 184.516 44.2692 187.295 47.0512C190.074 49.8302 193.436 51.2196 197.377 51.2196ZM197.377 63.6885C189.992 63.6885 183.689 61.0828 178.477 55.8684C173.263 50.6541 170.654 44.3543 170.654 36.966C170.654 29.5777 173.263 23.2779 178.477 18.0635C183.689 12.8522 189.992 10.2435 197.377 10.2435C204.765 10.2435 211.065 12.8522 216.279 18.0635C221.494 23.2779 224.102 29.5777 224.102 36.966C224.102 44.3543 221.494 50.6541 216.279 55.8684C211.065 61.0828 204.765 63.6885 197.377 63.6885Z" fill="#BC002D"/>
<path d="M95.578 0.204712H64.0186V6.88948H95.578V0.204712Z" fill="#BC002D"/>
<path d="M213.158 0.21793H181.598V6.9027H213.158V0.21793Z" fill="#BC002D"/>
<path d="M234.79 12.0252H254.385C260.989 12.0252 266.204 13.9376 270.028 17.7625C273.853 21.5874 275.766 26.2059 275.766 31.6209C275.766 37.039 273.853 41.6574 270.028 45.4823C268.508 47.0025 266.763 48.2247 264.79 49.1521L276.264 61.9068H259.518L249.934 51.2196H247.262V61.9068H234.79V12.0252ZM247.262 22.7154V40.5294H254.385C256.857 40.5294 258.958 39.6628 260.694 37.9298C262.427 36.1937 263.294 34.0928 263.294 31.6209C263.294 29.1521 262.427 27.0481 260.694 25.315C258.958 23.5819 256.857 22.7154 254.385 22.7154H247.262Z" fill="#353535"/>
<path d="M311.394 51.2195C315.337 51.2195 318.7 49.8301 321.479 47.0512C324.258 44.2692 325.647 40.9094 325.647 36.966C325.647 33.0225 324.258 29.6628 321.479 26.8838C318.7 24.1048 315.337 22.7153 311.394 22.7153C307.453 22.7153 304.091 24.1048 301.312 26.8838C298.533 29.6628 297.143 33.0225 297.143 36.966C297.143 40.9094 298.533 44.2692 301.312 47.0512C304.091 49.8301 307.453 51.2195 311.394 51.2195ZM311.394 63.6884C304.009 63.6884 297.706 61.0827 292.494 55.8683C287.28 50.654 284.671 44.3542 284.671 36.966C284.671 29.5777 287.28 23.2778 292.494 18.0635C297.706 12.8521 304.009 10.2435 311.394 10.2435C318.782 10.2435 325.082 12.8521 330.296 18.0635C335.511 23.2778 338.12 29.5777 338.12 36.966C338.12 44.3542 335.511 50.654 330.296 55.8683C325.082 61.0827 318.782 63.6884 311.394 63.6884Z" fill="#353535"/>
<path d="M361.279 31.6209H372.857C374.095 31.6209 375.144 31.1891 376.01 30.3226C376.88 29.4531 377.311 28.404 377.311 27.1666C377.311 25.9321 376.88 24.8832 376.01 24.0137C375.144 23.1471 374.095 22.7154 372.857 22.7154H361.279V31.6209ZM348.807 12.0252H374.639C378.819 12.0252 382.389 13.5028 385.347 16.4612C388.303 19.4195 389.783 22.986 389.783 27.1666C389.783 30.9215 388.345 34.187 385.472 36.966C388.345 39.745 389.783 43.0103 389.783 46.7652C389.783 50.9458 388.303 54.5155 385.347 57.4708C382.389 60.4292 378.819 61.9068 374.639 61.9068H348.807V12.0252ZM361.279 42.3111V51.2196H372.857C374.095 51.2196 375.144 50.7848 376.01 49.9183C376.88 49.0518 377.311 47.9996 377.311 46.7652C377.311 45.5308 376.88 44.4789 376.01 43.6124C375.144 42.7459 374.095 42.3111 372.857 42.3111H361.279Z" fill="#353535"/>
<path d="M427.193 51.2195C431.137 51.2195 434.499 49.8301 437.278 47.0512C440.057 44.2692 441.447 40.9094 441.447 36.966C441.447 33.0225 440.057 29.6628 437.278 26.8838C434.499 24.1048 431.137 22.7153 427.193 22.7153C423.253 22.7153 419.89 24.1048 417.111 26.8838C414.332 29.6628 412.943 33.0225 412.943 36.966C412.943 40.9094 414.332 44.2692 417.111 47.0512C419.89 49.8301 423.253 51.2195 427.193 51.2195ZM427.193 63.6884C419.808 63.6884 413.505 61.0827 408.294 55.8683C403.079 50.654 400.471 44.3542 400.471 36.966C400.471 29.5777 403.079 23.2778 408.294 18.0635C413.505 12.8521 419.808 10.2435 427.193 10.2435C434.582 10.2435 440.881 12.8521 446.096 18.0635C451.31 23.2778 453.916 29.5777 453.916 36.966C453.916 44.3542 451.31 50.654 446.096 55.8683C440.881 61.0827 434.582 63.6884 427.193 63.6884Z" fill="#353535"/>
<path d="M486.874 22.7154V61.9068H474.405V22.7154H461.042V12.0252H500.237V22.7154H486.874Z" fill="#353535"/>
</svg>
