<svg width="693" height="605" viewBox="0 0 693 605" fill="none" xmlns="http://www.w3.org/2000/svg">
<rect width="500" height="50" transform="matrix(1 0 0 -1 95.0288 400.308)" fill="#323232"/>
<rect width="50" height="50" transform="matrix(1 0 0 -1 95.0288 350.308)" fill="#323232"/>
<rect width="50" height="50" transform="matrix(1 0 0 -1 545.029 350.308)" fill="#323232"/>
<rect x="95.0288" y="100.308" width="500" height="50" fill="#323232"/>
<rect x="95.0288" y="150.308" width="50" height="50" fill="#323232"/>
<rect x="545.029" y="150.308" width="50" height="50" fill="#323232"/>
<rect x="320.029" y="0.307739" width="50" height="100" fill="#323232"/>
<circle cx="238.779" cy="279.426" r="31.25" fill="#323232"/>
<circle cx="451.279" cy="279.426" r="31.25" fill="#323232"/>
<path d="M40.8488 547.308C34.1075 547.308 28.0915 545.857 22.8008 542.956C17.5101 540.054 13.3288 536.172 10.2568 531.308C7.18481 526.358 5.64881 520.812 5.64881 514.668C5.64881 508.524 7.18481 503.02 10.2568 498.156C13.3288 493.206 17.5101 489.281 22.8008 486.38C28.0915 483.478 34.1075 482.028 40.8488 482.028H48.7848V494.572H40.5928C36.6675 494.572 33.1688 495.468 30.0968 497.26C27.1101 498.966 24.7635 501.356 23.0568 504.428C21.3501 507.5 20.4968 510.913 20.4968 514.668C20.4968 518.422 21.3501 521.836 23.0568 524.908C24.7635 527.98 27.1101 530.412 30.0968 532.204C33.1688 533.91 36.6675 534.764 40.5928 534.764H48.7848V547.308H40.8488ZM61.6108 547.308V453.868H76.3308V488.556C78.9761 485.74 82.0481 483.692 85.5468 482.412C89.0455 481.132 92.5868 480.492 96.1708 480.492C102.144 480.492 107.221 481.772 111.403 484.332C115.669 486.806 118.912 490.262 121.131 494.7C123.349 499.052 124.459 504.044 124.459 509.676V547.308H109.867V509.804C109.867 506.476 109.056 503.574 107.435 501.1C105.899 498.54 103.851 496.577 101.291 495.212C98.8161 493.761 96.0428 493.036 92.9708 493.036C90.0695 493.036 87.3388 493.718 84.7788 495.084C82.2188 496.449 80.1708 498.369 78.6348 500.844C77.0988 503.318 76.3308 506.134 76.3308 509.292V547.308H61.6108ZM168.607 548.844C162.377 548.844 157.001 547.308 152.479 544.236C147.956 541.164 144.457 537.068 141.983 531.948C139.593 526.742 138.399 521.025 138.399 514.796C138.399 508.31 139.764 502.508 142.495 497.388C145.311 492.182 149.279 488.086 154.399 485.1C159.604 482.028 165.791 480.492 172.959 480.492C180.041 480.492 186.057 482.028 191.007 485.1C196.041 488.086 199.881 492.182 202.527 497.388C205.257 502.508 206.623 508.225 206.623 514.54V547.308H191.903V535.148H191.647C190.367 537.537 188.703 539.798 186.655 541.932C184.607 543.98 182.089 545.644 179.103 546.924C176.116 548.204 172.617 548.844 168.607 548.844ZM172.575 536.3C176.415 536.3 179.743 535.361 182.559 533.484C185.46 531.521 187.679 528.918 189.215 525.676C190.836 522.348 191.647 518.636 191.647 514.54C191.647 510.444 190.879 506.817 189.343 503.66C187.807 500.417 185.631 497.857 182.815 495.98C179.999 494.017 176.628 493.036 172.703 493.036C168.607 493.036 165.108 494.017 162.207 495.98C159.305 497.857 157.087 500.417 155.551 503.66C154.015 506.902 153.247 510.572 153.247 514.668C153.247 518.678 154.015 522.348 155.551 525.676C157.087 528.918 159.263 531.521 162.079 533.484C164.98 535.361 168.479 536.3 172.575 536.3ZM224.748 547.308V457.708H274.156C278.593 457.708 282.518 458.689 285.932 460.652C289.43 462.614 292.161 465.302 294.124 468.716C296.172 472.129 297.196 476.097 297.196 480.62C297.196 483.606 296.556 486.465 295.276 489.196C294.081 491.926 292.417 494.316 290.284 496.364C288.15 498.326 285.676 499.862 282.86 500.972C286.102 501.91 288.961 503.489 291.436 505.708C293.996 507.926 296.001 510.572 297.452 513.644C298.902 516.716 299.628 520.001 299.628 523.5C299.628 528.108 298.561 532.204 296.428 535.788C294.38 539.372 291.521 542.188 287.852 544.236C284.268 546.284 280.129 547.308 275.436 547.308H224.748ZM239.98 533.74H271.34C273.9 533.74 276.161 533.185 278.124 532.076C280.086 530.881 281.58 529.302 282.604 527.34C283.713 525.292 284.268 523.158 284.268 520.94C284.268 518.636 283.713 516.545 282.604 514.668C281.494 512.705 279.958 511.126 277.996 509.932C276.033 508.737 273.729 508.14 271.084 508.14H239.98V533.74ZM239.98 495.212H269.42C271.809 495.212 273.942 494.657 275.82 493.548C277.782 492.438 279.276 490.988 280.3 489.196C281.409 487.318 281.964 485.313 281.964 483.18C281.964 480.961 281.452 478.956 280.428 477.164C279.404 475.372 277.953 473.921 276.076 472.812C274.284 471.702 272.193 471.148 269.804 471.148H239.98V495.212ZM344.84 548.844C338.098 548.844 332.125 547.35 326.92 544.364C321.714 541.292 317.576 537.196 314.504 532.076C311.517 526.87 310.024 521.068 310.024 514.668C310.024 508.268 311.517 502.508 314.504 497.388C317.576 492.182 321.714 488.086 326.92 485.1C332.125 482.028 338.098 480.492 344.84 480.492C351.496 480.492 357.426 482.028 362.632 485.1C367.837 488.086 371.933 492.14 374.92 497.26C377.992 502.38 379.528 508.182 379.528 514.668C379.528 521.068 377.992 526.87 374.92 532.076C371.933 537.196 367.837 541.292 362.632 544.364C357.426 547.35 351.496 548.844 344.84 548.844ZM344.84 536.3C348.85 536.3 352.349 535.361 355.336 533.484C358.322 531.521 360.626 528.918 362.248 525.676C363.869 522.433 364.68 518.764 364.68 514.668C364.68 510.657 363.869 507.03 362.248 503.788C360.626 500.46 358.322 497.857 355.336 495.98C352.349 494.017 348.85 493.036 344.84 493.036C340.744 493.036 337.202 494.017 334.216 495.98C331.314 497.857 329.01 500.417 327.304 503.66C325.682 506.902 324.872 510.572 324.872 514.668C324.872 518.678 325.682 522.348 327.304 525.676C329.01 528.918 331.314 531.521 334.216 533.484C337.202 535.361 340.744 536.3 344.84 536.3ZM413.514 547.308C407.711 547.308 403.146 545.644 399.818 542.316C396.575 538.988 394.954 534.465 394.954 528.748V465.644H409.546V528.108C409.546 530.07 410.143 531.692 411.338 532.972C412.532 534.166 414.111 534.764 416.074 534.764H429.77V547.308H413.514ZM383.69 494.572V482.028H429.898V494.572H383.69ZM443.48 547.308V534.764H474.968C476.504 534.764 477.826 534.422 478.936 533.74C480.13 533.057 481.026 532.161 481.624 531.052C482.306 529.942 482.648 528.79 482.648 527.596C482.648 526.23 482.349 525.036 481.752 524.012C481.154 522.988 480.301 522.177 479.192 521.58C478.082 520.897 476.802 520.556 475.352 520.556H462.552C458.37 520.556 454.658 519.873 451.416 518.508C448.173 517.142 445.613 515.052 443.736 512.236C441.858 509.334 440.92 505.708 440.92 501.356C440.92 497.857 441.773 494.657 443.48 491.756C445.272 488.854 447.661 486.508 450.648 484.716C453.634 482.924 457.005 482.028 460.76 482.028H491.096V494.572H462.168C460.205 494.572 458.584 495.212 457.304 496.492C456.024 497.686 455.384 499.18 455.384 500.972C455.384 502.678 456.024 504.172 457.304 505.452C458.584 506.732 460.29 507.372 462.424 507.372H474.84C479.533 507.372 483.544 508.097 486.872 509.548C490.2 510.998 492.717 513.174 494.424 516.076C496.216 518.977 497.112 522.646 497.112 527.084C497.112 530.668 496.216 534.038 494.424 537.196C492.632 540.268 490.157 542.742 487 544.62C483.928 546.412 480.429 547.308 476.504 547.308H443.48ZM520.568 457.58C521.762 457.58 523 457.921 524.28 458.604C525.645 459.201 526.669 460.012 527.352 461.036L558.456 508.908L552.056 508.652L583.928 461.036C585.549 458.732 587.64 457.58 590.2 457.58C592.248 457.58 594.082 458.305 595.704 459.756C597.325 461.206 598.136 463.084 598.136 465.388V539.5C598.136 541.718 597.41 543.596 595.96 545.132C594.509 546.582 592.589 547.308 590.2 547.308C587.81 547.308 585.848 546.582 584.312 545.132C582.861 543.596 582.136 541.718 582.136 539.5V479.212L587.128 480.364L561.016 520.172C560.248 521.11 559.266 521.921 558.072 522.604C556.962 523.286 555.81 523.585 554.616 523.5C553.506 523.585 552.354 523.286 551.16 522.604C550.05 521.921 549.112 521.11 548.344 520.172L523.896 481.516L527.224 474.732V539.5C527.224 541.718 526.541 543.596 525.176 545.132C523.81 546.582 522.018 547.308 519.8 547.308C517.666 547.308 515.917 546.582 514.552 545.132C513.186 543.596 512.504 541.718 512.504 539.5V465.388C512.504 463.254 513.272 461.42 514.808 459.884C516.429 458.348 518.349 457.58 520.568 457.58ZM678.691 457.58C680.653 457.58 682.317 458.348 683.683 459.884C685.133 461.42 685.859 463.041 685.859 464.748C685.859 466.369 685.304 467.905 684.195 469.356L658.467 503.276L649.763 491.372L672.419 461.292C674.211 458.817 676.301 457.58 678.691 457.58ZM621.603 457.324C624.077 457.324 626.168 458.433 627.875 460.652L684.195 535.532C685.219 536.897 685.731 538.476 685.731 540.268C685.731 542.657 684.877 544.534 683.171 545.9C681.464 547.265 679.757 547.948 678.051 547.948C675.576 547.948 673.485 546.838 671.779 544.62L615.459 469.74C614.349 468.374 613.795 466.838 613.795 465.132C613.795 462.913 614.605 461.078 616.227 459.628C617.933 458.092 619.725 457.324 621.603 457.324ZM620.451 547.948C618.573 547.948 616.952 547.265 615.587 545.9C614.221 544.449 613.539 542.87 613.539 541.164C613.539 539.286 614.179 537.537 615.459 535.916L641.443 500.716L649.891 513.132L626.851 544.364C625.144 546.753 623.011 547.948 620.451 547.948Z" fill="#323232"/>
</svg>
