<?xml version="1.0" encoding="UTF-8" standalone="no"?>
<!DOCTYPE svg PUBLIC "-//W3C//DTD SVG 1.1//EN" "http://www.w3.org/Graphics/SVG/1.1/DTD/svg11.dtd">
<svg width="100%" height="100%" viewBox="0 0 653 96" version="1.1" xmlns="http://www.w3.org/2000/svg" xmlns:xlink="http://www.w3.org/1999/xlink" xml:space="preserve" xmlns:serif="http://www.serif.com/" style="fill-rule:evenodd;clip-rule:evenodd;stroke-linejoin:round;stroke-miterlimit:2;">
    <g transform="matrix(1,0,0,1,-5.81287,-468.755)">
        <path d="M41.013,562.195C34.272,562.195 28.256,560.745 22.965,557.843C17.674,554.942 13.493,551.059 10.421,546.195C7.349,541.246 5.813,535.699 5.813,529.555C5.813,523.411 7.349,517.907 10.421,513.043C13.493,508.094 17.674,504.169 22.965,501.267C28.256,498.366 34.272,496.915 41.013,496.915L48.949,496.915L48.949,509.459L40.757,509.459C36.831,509.459 33.333,510.355 30.261,512.147C27.274,513.854 24.927,516.243 23.221,519.315C21.514,522.387 20.661,525.801 20.661,529.555C20.661,533.31 21.514,536.723 23.221,539.795C24.927,542.867 27.274,545.299 30.261,547.091C33.333,548.798 36.831,549.651 40.757,549.651L48.949,549.651L48.949,562.195L41.013,562.195ZM61.775,562.195L61.775,468.755L76.495,468.755L76.495,503.443C79.14,500.627 82.212,498.579 85.711,497.299C89.21,496.019 92.751,495.379 96.335,495.379C102.308,495.379 107.386,496.659 111.567,499.219C115.834,501.694 119.076,505.15 121.295,509.587C123.514,513.939 124.623,518.931 124.623,524.563L124.623,562.195L110.031,562.195L110.031,524.691C110.031,521.363 109.22,518.462 107.599,515.987C106.063,513.427 104.015,511.465 101.455,510.099C98.98,508.649 96.207,507.923 93.135,507.923C90.234,507.923 87.503,508.606 84.943,509.971C82.383,511.337 80.335,513.257 78.799,515.731C77.263,518.206 76.495,521.022 76.495,524.179L76.495,562.195L61.775,562.195ZM168.771,563.731C162.542,563.731 157.166,562.195 152.643,559.123C148.12,556.051 144.622,551.955 142.147,546.835C139.758,541.63 138.563,535.913 138.563,529.683C138.563,523.198 139.928,517.395 142.659,512.275C145.475,507.07 149.443,502.974 154.563,499.987C159.768,496.915 165.955,495.379 173.123,495.379C180.206,495.379 186.222,496.915 191.171,499.987C196.206,502.974 200.046,507.07 202.691,512.275C205.422,517.395 206.787,523.113 206.787,529.427L206.787,562.195L192.067,562.195L192.067,550.035L191.811,550.035C190.531,552.425 188.867,554.686 186.819,556.819C184.771,558.867 182.254,560.531 179.267,561.811C176.28,563.091 172.782,563.731 168.771,563.731ZM172.739,551.187C176.579,551.187 179.907,550.249 182.723,548.371C185.624,546.409 187.843,543.806 189.379,540.563C191,537.235 191.811,533.523 191.811,529.427C191.811,525.331 191.043,521.705 189.507,518.547C187.971,515.305 185.795,512.745 182.979,510.867C180.163,508.905 176.792,507.923 172.867,507.923C168.771,507.923 165.272,508.905 162.371,510.867C159.47,512.745 157.251,515.305 155.715,518.547C154.179,521.79 153.411,525.459 153.411,529.555C153.411,533.566 154.179,537.235 155.715,540.563C157.251,543.806 159.427,546.409 162.243,548.371C165.144,550.249 168.643,551.187 172.739,551.187ZM224.912,562.195L224.912,472.595L274.32,472.595C278.757,472.595 282.683,473.577 286.096,475.539C289.595,477.502 292.325,480.19 294.288,483.603C296.336,487.017 297.36,490.985 297.36,495.507C297.36,498.494 296.72,501.353 295.44,504.083C294.245,506.814 292.581,509.203 290.448,511.251C288.315,513.214 285.84,514.75 283.024,515.859C286.267,516.798 289.125,518.377 291.6,520.595C294.16,522.814 296.165,525.459 297.616,528.531C299.067,531.603 299.792,534.889 299.792,538.387C299.792,542.995 298.725,547.091 296.592,550.675C294.544,554.259 291.685,557.075 288.016,559.123C284.432,561.171 280.293,562.195 275.6,562.195L224.912,562.195ZM240.144,548.627L271.504,548.627C274.064,548.627 276.325,548.073 278.288,546.963C280.251,545.769 281.744,544.19 282.768,542.227C283.877,540.179 284.432,538.046 284.432,535.827C284.432,533.523 283.877,531.433 282.768,529.555C281.659,527.593 280.123,526.014 278.16,524.819C276.197,523.625 273.893,523.027 271.248,523.027L240.144,523.027L240.144,548.627ZM240.144,510.099L269.584,510.099C271.973,510.099 274.107,509.545 275.984,508.435C277.947,507.326 279.44,505.875 280.464,504.083C281.573,502.206 282.128,500.201 282.128,498.067C282.128,495.849 281.616,493.843 280.592,492.051C279.568,490.259 278.117,488.809 276.24,487.699C274.448,486.59 272.357,486.035 269.968,486.035L240.144,486.035L240.144,510.099ZM345.004,563.731C338.263,563.731 332.289,562.238 327.084,559.251C321.879,556.179 317.74,552.083 314.668,546.963C311.681,541.758 310.188,535.955 310.188,529.555C310.188,523.155 311.681,517.395 314.668,512.275C317.74,507.07 321.879,502.974 327.084,499.987C332.289,496.915 338.263,495.379 345.004,495.379C351.66,495.379 357.591,496.915 362.796,499.987C368.001,502.974 372.097,507.027 375.084,512.147C378.156,517.267 379.692,523.07 379.692,529.555C379.692,535.955 378.156,541.758 375.084,546.963C372.097,552.083 368.001,556.179 362.796,559.251C357.591,562.238 351.66,563.731 345.004,563.731ZM345.004,551.187C349.015,551.187 352.513,550.249 355.5,548.371C358.487,546.409 360.791,543.806 362.412,540.563C364.033,537.321 364.844,533.651 364.844,529.555C364.844,525.545 364.033,521.918 362.412,518.675C360.791,515.347 358.487,512.745 355.5,510.867C352.513,508.905 349.015,507.923 345.004,507.923C340.908,507.923 337.367,508.905 334.38,510.867C331.479,512.745 329.175,515.305 327.468,518.547C325.847,521.79 325.036,525.459 325.036,529.555C325.036,533.566 325.847,537.235 327.468,540.563C329.175,543.806 331.479,546.409 334.38,548.371C337.367,550.249 340.908,551.187 345.004,551.187ZM413.678,562.195C407.875,562.195 403.31,560.531 399.982,557.203C396.739,553.875 395.118,549.353 395.118,543.635L395.118,480.531L409.71,480.531L409.71,542.995C409.71,544.958 410.307,546.579 411.502,547.859C412.697,549.054 414.275,549.651 416.238,549.651L429.934,549.651L429.934,562.195L413.678,562.195ZM383.854,509.459L383.854,496.915L430.062,496.915L430.062,509.459L383.854,509.459ZM443.644,562.195L443.644,549.651L475.132,549.651C476.668,549.651 477.991,549.31 479.1,548.627C480.295,547.945 481.191,547.049 481.788,545.939C482.471,544.83 482.812,543.678 482.812,542.483C482.812,541.118 482.513,539.923 481.916,538.899C481.319,537.875 480.465,537.065 479.356,536.467C478.247,535.785 476.967,535.443 475.516,535.443L462.716,535.443C458.535,535.443 454.823,534.761 451.58,533.395C448.337,532.03 445.777,529.939 443.9,527.123C442.023,524.222 441.084,520.595 441.084,516.243C441.084,512.745 441.937,509.545 443.644,506.643C445.436,503.742 447.825,501.395 450.812,499.603C453.799,497.811 457.169,496.915 460.924,496.915L491.26,496.915L491.26,509.459L462.332,509.459C460.369,509.459 458.748,510.099 457.468,511.379C456.188,512.574 455.548,514.067 455.548,515.859C455.548,517.566 456.188,519.059 457.468,520.339C458.748,521.619 460.455,522.259 462.588,522.259L475.004,522.259C479.697,522.259 483.708,522.985 487.036,524.435C490.364,525.886 492.881,528.062 494.588,530.963C496.38,533.865 497.276,537.534 497.276,541.971C497.276,545.555 496.38,548.926 494.588,552.083C492.796,555.155 490.321,557.63 487.164,559.507C484.092,561.299 480.593,562.195 476.668,562.195L443.644,562.195Z" style="fill:rgb(50,50,50);fill-rule:nonzero;"/>
        <g transform="matrix(1.016496,0,0,1.090887,-10.72507,-51.323508)">
            <path d="M589.531,482.2L606.995,482.198L658.395,564.33L640.925,564.326L589.531,482.2Z" style="fill:rgb(50,50,50);fill-rule:nonzero;"/>
        </g>
        <g transform="matrix(1.016496,0,0,1.090887,-10.72507,-51.323508)">
            <path d="M589.531,564.331L606.995,564.333L658.395,482.201L640.925,482.205L589.531,564.331Z" style="fill:rgb(50,50,50);fill-rule:nonzero;"/>
        </g>
        <g transform="matrix(1,0,0,1,-63.477557,464.7)">
            <path d="M572,99.6L587,99.6L587,48L607,78L627,48L627,99.6L642,99.6L642,10L627,10L607,48L587,10L572,10L572,99.6Z" style="fill:rgb(50,50,50);"/>
        </g>
    </g>
</svg>
