<?xml version="1.0" encoding="UTF-8" standalone="no"?>
<!DOCTYPE svg PUBLIC "-//W3C//DTD SVG 1.1//EN" "http://www.w3.org/Graphics/SVG/1.1/DTD/svg11.dtd">
<svg width="100%" height="100%" viewBox="0 0 1243 747" version="1.1" xmlns="http://www.w3.org/2000/svg" xmlns:xlink="http://www.w3.org/1999/xlink" xml:space="preserve" xmlns:serif="http://www.serif.com/" style="fill-rule:evenodd;clip-rule:evenodd;stroke-linejoin:round;stroke-miterlimit:2;">
    <g transform="matrix(1,0,0,1,-531.028484,-472.918428)">
        <g transform="matrix(1,0,0,1,-450,232)">
            <g transform="matrix(400,0,0,400,1437.028484,820.859529)">
            </g>
            <text x="957.028px" y="820.86px" style="font-family:'PTMono-Regular', 'PT Mono', monospace;font-size:400px;">IS</text>
        </g>
        <g transform="matrix(1,0,0,1,-280,-65.196625)">
            <g transform="matrix(266.666667,0,0,266.666667,1907.339683,735.448386)">
            </g>
            <text x="787.34px" y="735.448px" style="font-family:'JetBrainsMono-Regular', 'JetBrains Mono', monospace;font-size:266.667px;">PASSION</text>
        </g>
        <g transform="matrix(1,0,0,1,45,-32)">
            <g transform="matrix(266.666667,0,0,266.666667,1527.170876,945.481309)">
            </g>
            <text x="1047.093px" y="945.481px" style="font-family:'CourierNewPSMT', 'Courier New', monospace;font-size:266.667px;">THE</text>
        </g>
        <g transform="matrix(1,0,0,1,40,-28)">
            <g transform="matrix(300,0,0,300,1758.15625,1247)">
            </g>
            <text x="1033px" y="1247px" style="font-family:'Krungthep';font-size:300px;">FUEL</text>
        </g>
    </g>
</svg>
